<?xml version="1.0"?><svg width="640" height="480" xmlns="http://www.w3.org/2000/svg" xmlns:xlink="http://www.w3.org/1999/xlink">
 <defs>
  <linearGradient id="linearGradient1085">
   <stop id="stop1086" offset="0" stop-color="#7f0000"/>
   <stop id="stop1087" offset="1" stop-color="#ff0000"/>
  </linearGradient>
  <radialGradient cx="1.716447" cy="-0.640224" fx="1.716447" fy="-0.640224" id="radialGradient1088" r="4.102719" xlink:href="#linearGradient1085"/>
  <radialGradient cx="-1.936861" cy="-0.634991" fx="-1.936861" fy="-0.634991" id="radialGradient1089" r="4.102719" xlink:href="#linearGradient1085"/>
  <radialGradient cx="-0.423957" cy="-2.490902" fx="-0.423957" fy="-2.490902" gradientTransform="scale(0.751916,1.329935)" id="radialGradient1090" r="4.102719" xlink:href="#linearGradient1085"/>
  <radialGradient cx="-0.421943" cy="0.256144" fx="-0.421943" fy="0.256144" gradientTransform="scale(0.751916,1.329935)" id="radialGradient1091" r="4.102719" xlink:href="#linearGradient1085"/>
  <radialGradient cx="0.777461" cy="-0.629632" fx="0.777461" fy="-0.629632" id="radialGradient1092" r="4.102719" xlink:href="#linearGradient1085"/>
  <radialGradient cx="-2.875848" cy="-0.638522" fx="-2.875848" fy="-0.638522" id="radialGradient1093" r="4.102719" xlink:href="#linearGradient1085"/>
  <radialGradient cx="-0.423957" cy="-1.781332" fx="-0.423957" fy="-1.781332" gradientTransform="scale(0.751916,1.329935)" id="radialGradient1094" r="4.102719" xlink:href="#linearGradient1085"/>
  <radialGradient cx="-0.419293" cy="0.962385" fx="-0.419293" fy="0.962385" gradientTransform="scale(0.751916,1.329935)" id="radialGradient1095" r="4.102719" xlink:href="#linearGradient1085"/>
  <radialGradient cx="0.238952" cy="0.079291" fx="0.238952" fy="0.079291" gradientTransform="scale(0.867801,1.152339)" id="radialGradient1096" r="1.277524" xlink:href="#linearGradient1085"/>
  <linearGradient id="svg_1" x1="0" y1="0" x2="1" y2="1">
   <stop offset="0" stop-color="#ff0000"/>
   <stop offset="1" stop-color="#ffff00"/>
  </linearGradient>
  <linearGradient id="svg_2" x1="0" y1="0" x2="1" y2="1">
   <stop offset="0" stop-color="#bf0000"/>
   <stop offset="1" stop-color="#f7b62a"/>
  </linearGradient>
  <linearGradient id="svg_3" x1="0" y1="0" x2="1" y2="1">
   <stop offset="0" stop-color="#af1818"/>
   <stop offset="1" stop-color="#f7b62a"/>
  </linearGradient>
  <linearGradient id="svg_4" x1="0" y1="0" x2="1" y2="1">
   <stop offset="0" stop-color="#af1818"/>
   <stop offset="1" stop-color="#f2de48"/>
  </linearGradient>
 </defs>
 <g>
  <title>Layer 1</title>
  <path id="svg_7" d="m-79.409103,354.024597c6.848213,6.624939 37.450443,26.425049 57.130491,-2.727234c19.680063,-29.152222 26.731864,-42.335632 46.570667,-46.087708c39.67761,-7.504242 42.535192,24.432312 47.08473,41.109253l2.464302,29.283844l1.184776,23.563629l0.355476,11.533722l0.355423,11.53363l-0.521339,20.486389l-2.417007,18.997437l-8.530251,31.740967l-10.236328,35.413788c161.128563,33.751038 178.897896,31.319031 201.550682,28.440125c11.326416,-1.439392 22.402893,-4.759033 30.222656,-9.85437c7.819763,-5.095337 12.382874,-14.944519 12.578125,-31.428528c0.390472,-32.967987 -71.9086,-40.665497 -73.872086,-65.392609c-0.453156,-5.706268 -0.521698,-13.331329 4.521713,-23.82428c18.492432,-21.658661 53.157318,-31.771576 84.061279,-32.882477c11.408447,-0.410095 22.137695,0.562469 31.515076,2.48172c0.416168,0.049286 0.85434,0.133606 1.270752,0.186096c26.664612,3.363037 53.713409,13.424652 69.320374,31.703644c26.898163,55.962738 -41.287109,43.524811 -48.97226,82.268188c-5.599426,28.22821 30.981628,55.312866 66.134125,48.082886l174.16275,-39.707153c-2.685425,-15.815674 -6.792725,-33.12027 -11.373779,-48.935944c-4.581116,-15.815613 -10.109985,-23.193481 -11.847717,-45.957825c-1.737671,-22.764435 -1.105774,-31.134949 0.473938,-46.950562c1.579712,-15.815674 3.2099,-33.64624 6.634705,-46.454224c3.424805,-12.808014 10.212769,-31.748016 39.970947,-26.119843c39.677551,7.504211 32.171753,71.245514 89.483765,44.980713c18.71991,-15.239441 29.024109,-41.651428 32.46814,-67.688202c0.053955,-0.406677 0.140259,-0.834503 0.190613,-1.240845c1.965454,-9.156555 2.96167,-19.63327 2.541687,-30.77301c-1.137817,-30.176331 -11.494629,-64.025024 -33.675415,-82.082047c-57.312073,-26.264801 -56.263733,35.845322 -76.688538,47.028091c-20.424561,11.182785 -31.753113,7.744614 -46.727295,3.191025c-7.487122,-2.276764 -11.383362,-7.438141 -14.170166,-14.106201c-2.786743,-6.668045 -4.463989,-17.324417 -7.513062,-35.55455c-3.049072,-18.230118 -1.595947,-25.788956 -1.179565,-42.00267c0.416321,-16.213745 5.008972,-32.644638 7.291443,-47.772606c2.282349,-15.128006 6.519592,-24.982407 10.964233,-42.933311c4.444641,-17.950968 11.940002,-33.575281 13.156067,-49.323693c-4.739075,-3.97071 -147.16095,-36.977241 -191.708252,-42.436973c-44.547302,-5.459724 -66.977875,32.915562 -47.918854,62.724841c19.059052,29.809228 76.344269,30.772553 49.446136,86.735211c-18.492371,21.65863 -53.157318,31.771561 -84.061218,32.882446c-11.408417,0.410103 -22.137665,-0.562439 -31.515045,-2.481682c-0.41626,-0.049263 -0.85437,-0.133598 -1.270752,-0.186127c-26.664612,-3.363014 -53.713547,-13.424568 -69.320404,-31.703659c-5.043411,-10.493004 -6.87056,-18.118027 -6.417404,-23.824257c1.963562,-24.727089 51.925369,-33.417324 69.069534,-61.918273c8.572021,-14.250519 9.660522,-23.934733 2.369446,-37.242684c-7.291138,-13.307919 -26.753204,-26.26889 -59.282043,-23.248631c-65.746338,13.897488 -129.597,31.765688 -195.343315,45.663176l14.477802,26.915527l7.144165,12.167261c4.119068,8.853729 4.446857,9.766014 6.196384,13.656319l4.774612,11.670937l4.300728,10.678272l4.99968,26.022133l1.966705,21.952156l2.061478,27.312607l-1.824623,22.547699l-5.556519,14.251923c-2.484047,3.592529 -4.968102,7.185028 -7.452141,10.777527c-8.700024,10.731995 -15.784542,29.610031 -43.948544,24.283386c-39.677604,-7.504227 -41.64996,-71.245529 -98.962017,-44.980728c-18.719856,15.239502 -31.905861,50.027054 -33.605492,62.327774c-1.699623,12.300705 -3.061501,21.583862 -3.156662,28.63002c-0.047577,3.523071 -0.379044,3.155029 -0.261917,4.85968c0.117119,1.704651 -0.264694,3.099976 -0.033905,10.149933c0.230759,7.049957 0.916672,9.656281 0.903038,11.259583c-0.013618,1.603363 0.221077,2.402191 0.68679,4.645966c0.931488,4.487518 2.653549,15.146271 3.841255,18.644287c1.187706,3.498016 4.179947,12.146759 8.663116,22.141205c4.4832,9.994354 11.380028,19.585388 14.804108,22.897888z" stroke-linejoin="round" stroke-width="6" stroke="#000000" fill-rule="evenodd" fill="#ffffff"/>
 </g>
</svg>